<mxfile host="app.diagrams.net" modified="2022-11-21T17:25:54.370Z" agent="5.0 (Windows NT 10.0; Win64; x64) AppleWebKit/537.36 (KHTML, like Gecko) Chrome/107.0.0.0 Safari/537.36 Edg/107.0.1418.52" etag="-iAa29irCyH6ttQISTaw" version="20.5.1" type="github">
  <diagram id="oju0SljEm1rWjjwKsNiE" name="第 1 页">
    <mxGraphModel dx="845" dy="778" grid="1" gridSize="10" guides="1" tooltips="1" connect="1" arrows="1" fold="1" page="1" pageScale="1" pageWidth="827" pageHeight="1169" math="0" shadow="0">
      <root>
        <mxCell id="0" />
        <mxCell id="1" parent="0" />
        <mxCell id="1f0ttem-VWgPK7SUnych-3" value="&lt;font style=&quot;font-size: 16px;&quot;&gt;int foo = 6&lt;/font&gt;" style="rounded=0;whiteSpace=wrap;html=1;arcSize=40;fontColor=#000000;fillColor=#ffffc0;strokeColor=#ff0000;" vertex="1" parent="1">
          <mxGeometry x="200" y="130" width="120" height="40" as="geometry" />
        </mxCell>
        <mxCell id="1f0ttem-VWgPK7SUnych-5" value="&lt;font style=&quot;font-size: 16px;&quot;&gt;int* p_foo = &amp;amp;foo&lt;/font&gt;" style="rounded=0;whiteSpace=wrap;html=1;arcSize=40;fontColor=#000000;fillColor=#ffffc0;strokeColor=#ff0000;" vertex="1" parent="1">
          <mxGeometry x="310" y="230" width="140" height="40" as="geometry" />
        </mxCell>
        <mxCell id="1f0ttem-VWgPK7SUnych-6" value="&lt;font style=&quot;font-size: 16px;&quot;&gt;p_foo&amp;nbsp; = 0000007272EFF544&lt;/font&gt;" style="rounded=0;whiteSpace=wrap;html=1;arcSize=40;fontColor=#000000;fillColor=#ffffc0;strokeColor=#ff0000;" vertex="1" parent="1">
          <mxGeometry x="440" y="130" width="240" height="40" as="geometry" />
        </mxCell>
        <mxCell id="1f0ttem-VWgPK7SUnych-7" value="&lt;font style=&quot;font-size: 16px;&quot;&gt;&amp;amp;foo&amp;nbsp; = 0000007272EFF544&lt;/font&gt;" style="rounded=0;whiteSpace=wrap;html=1;arcSize=40;fontColor=#000000;fillColor=#ffffc0;strokeColor=#ff0000;" vertex="1" parent="1">
          <mxGeometry x="140" y="330" width="240" height="40" as="geometry" />
        </mxCell>
        <mxCell id="1f0ttem-VWgPK7SUnych-8" value="&lt;font style=&quot;font-size: 16px;&quot;&gt;*p_foo&amp;nbsp; = 6&lt;/font&gt;" style="rounded=0;whiteSpace=wrap;html=1;arcSize=40;fontColor=#000000;fillColor=#ffffc0;strokeColor=#ff0000;" vertex="1" parent="1">
          <mxGeometry x="495" y="330" width="130" height="40" as="geometry" />
        </mxCell>
        <mxCell id="1f0ttem-VWgPK7SUnych-14" value="" style="html=1;verticalAlign=bottom;endArrow=open;endSize=8;strokeColor=#ff0000;rounded=0;fontSize=16;exitX=1;exitY=0.5;exitDx=0;exitDy=0;entryX=0.5;entryY=0;entryDx=0;entryDy=0;" edge="1" parent="1" source="1f0ttem-VWgPK7SUnych-3" target="1f0ttem-VWgPK7SUnych-5">
          <mxGeometry relative="1" as="geometry">
            <mxPoint x="410" y="430" as="targetPoint" />
            <mxPoint x="410" y="370" as="sourcePoint" />
          </mxGeometry>
        </mxCell>
        <mxCell id="1f0ttem-VWgPK7SUnych-16" value="" style="html=1;verticalAlign=bottom;endArrow=open;endSize=8;strokeColor=#ff0000;rounded=0;fontSize=16;exitX=0.5;exitY=0;exitDx=0;exitDy=0;entryX=0;entryY=0.5;entryDx=0;entryDy=0;" edge="1" parent="1" source="1f0ttem-VWgPK7SUnych-5" target="1f0ttem-VWgPK7SUnych-6">
          <mxGeometry relative="1" as="geometry">
            <mxPoint x="450" y="230" as="targetPoint" />
            <mxPoint x="330" y="160" as="sourcePoint" />
          </mxGeometry>
        </mxCell>
        <mxCell id="1f0ttem-VWgPK7SUnych-17" value="" style="html=1;verticalAlign=bottom;endArrow=open;endSize=8;strokeColor=#ff0000;rounded=0;fontSize=16;exitX=0.5;exitY=1;exitDx=0;exitDy=0;entryX=0.5;entryY=0;entryDx=0;entryDy=0;" edge="1" parent="1" source="1f0ttem-VWgPK7SUnych-3" target="1f0ttem-VWgPK7SUnych-7">
          <mxGeometry relative="1" as="geometry">
            <mxPoint x="460" y="240" as="targetPoint" />
            <mxPoint x="340" y="170" as="sourcePoint" />
          </mxGeometry>
        </mxCell>
        <mxCell id="1f0ttem-VWgPK7SUnych-18" value="" style="html=1;verticalAlign=bottom;endArrow=open;endSize=8;strokeColor=#ff0000;rounded=0;fontSize=16;entryX=0.5;entryY=0;entryDx=0;entryDy=0;exitX=0.5;exitY=1;exitDx=0;exitDy=0;" edge="1" parent="1" source="1f0ttem-VWgPK7SUnych-6" target="1f0ttem-VWgPK7SUnych-8">
          <mxGeometry relative="1" as="geometry">
            <mxPoint x="470" y="250" as="targetPoint" />
            <mxPoint x="640" y="210" as="sourcePoint" />
          </mxGeometry>
        </mxCell>
        <mxCell id="1f0ttem-VWgPK7SUnych-19" value="&lt;font style=&quot;font-size: 16px;&quot;&gt;int* p_bar&amp;nbsp;&lt;br&gt;*p_bar = 200&lt;br&gt;&lt;/font&gt;" style="rounded=0;whiteSpace=wrap;html=1;arcSize=40;fontColor=#000000;fillColor=#ffffc0;strokeColor=#ff0000;" vertex="1" parent="1">
          <mxGeometry x="200" y="410" width="130" height="40" as="geometry" />
        </mxCell>
        <mxCell id="1f0ttem-VWgPK7SUnych-20" value="&lt;span style=&quot;font-size: 16px;&quot;&gt;p_bar指向哪，我们不知道&lt;br&gt;200被存在哪，我们不知道&lt;br&gt;&lt;/span&gt;" style="rounded=0;whiteSpace=wrap;html=1;arcSize=40;fontColor=#000000;fillColor=#ffffc0;strokeColor=#ff0000;" vertex="1" parent="1">
          <mxGeometry x="420" y="410" width="210" height="40" as="geometry" />
        </mxCell>
        <mxCell id="1f0ttem-VWgPK7SUnych-21" value="" style="html=1;verticalAlign=bottom;endArrow=open;endSize=8;strokeColor=#ff0000;rounded=0;fontSize=16;exitX=1;exitY=0.5;exitDx=0;exitDy=0;entryX=0;entryY=0.5;entryDx=0;entryDy=0;" edge="1" parent="1" source="1f0ttem-VWgPK7SUnych-19" target="1f0ttem-VWgPK7SUnych-20">
          <mxGeometry relative="1" as="geometry">
            <mxPoint x="270" y="340" as="targetPoint" />
            <mxPoint x="270" y="180" as="sourcePoint" />
          </mxGeometry>
        </mxCell>
      </root>
    </mxGraphModel>
  </diagram>
</mxfile>
